<?xml version="1.0" encoding="UTF-8" standalone="no"?>
<!-- Generator: Adobe Illustrator 23.0.3, SVG Export Plug-In . SVG Version: 6.00 Build 0)  -->

<svg
   xmlns:dc="http://purl.org/dc/elements/1.1/"
   xmlns:cc="http://creativecommons.org/ns#"
   xmlns:rdf="http://www.w3.org/1999/02/22-rdf-syntax-ns#"
   xmlns:svg="http://www.w3.org/2000/svg"
   xmlns="http://www.w3.org/2000/svg"
   xmlns:sodipodi="http://sodipodi.sourceforge.net/DTD/sodipodi-0.dtd"
   xmlns:inkscape="http://www.inkscape.org/namespaces/inkscape"
   version="1.1"
   id="Layer_1"
   x="0px"
   y="0px"
   viewBox="0 0 264 280"
   style="enable-background:new 0 0 264 280;"
   xml:space="preserve"
   sodipodi:docname="avataaars.svg"
   inkscape:version="0.92.4 (5da689c313, 2019-01-14)"><metadata
   id="metadata183"><rdf:RDF><cc:Work
       rdf:about=""><dc:format>image/svg+xml</dc:format><dc:type
         rdf:resource="http://purl.org/dc/dcmitype/StillImage" /></cc:Work></rdf:RDF></metadata><defs
   id="defs181" /><sodipodi:namedview
   pagecolor="#ffffff"
   bordercolor="#666666"
   borderopacity="1"
   objecttolerance="10"
   gridtolerance="10"
   guidetolerance="10"
   inkscape:pageopacity="0"
   inkscape:pageshadow="2"
   inkscape:window-width="1366"
   inkscape:window-height="705"
   id="namedview179"
   showgrid="false"
   inkscape:zoom="1.19198"
   inkscape:cx="36.032035"
   inkscape:cy="163.33505"
   inkscape:window-x="-8"
   inkscape:window-y="-8"
   inkscape:window-maximized="1"
   inkscape:current-layer="layer1"><inkscape:grid
     type="xygrid"
     id="grid4708" /></sodipodi:namedview>
<style
   type="text/css"
   id="style2">
	.st0{fill-rule:evenodd;clip-rule:evenodd;fill:#E6E6E6;}
	.st1{filter:url(#Adobe_OpacityMaskFilter);}
	.st2{fill-rule:evenodd;clip-rule:evenodd;fill:#FFFFFF;}
	.st3{mask:url(#mask-2_1_);}
	.st4{fill-rule:evenodd;clip-rule:evenodd;fill:#2C3E50;}
	.st5{filter:url(#Adobe_OpacityMaskFilter_1_);}
	.st6{mask:url(#mask-4_1_);}
	.st7{fill-rule:evenodd;clip-rule:evenodd;fill:#D0C6AC;}
	.st8{filter:url(#Adobe_OpacityMaskFilter_2_);}
	.st9{mask:url(#mask-6_1_);}
	.st10{fill-rule:evenodd;clip-rule:evenodd;fill:#EDB98A;}
	.st11{filter:url(#Adobe_OpacityMaskFilter_3_);}
	.st12{mask:url(#mask-6_2_);fill-rule:evenodd;clip-rule:evenodd;fill-opacity:0.1;}
	.st13{filter:url(#Adobe_OpacityMaskFilter_4_);}
	.st14{mask:url(#react-mask-952_1_);}
	.st15{filter:url(#Adobe_OpacityMaskFilter_5_);}
	.st16{opacity:0.6;mask:url(#react-mask-952_2_);}
	.st17{fill-rule:evenodd;clip-rule:evenodd;fill-opacity:0.16;}
	.st18{fill-rule:evenodd;clip-rule:evenodd;fill-opacity:0.7;}
	.st19{filter:url(#Adobe_OpacityMaskFilter_6_);}
	.st20{mask:url(#react-mask-934_1_);fill-rule:evenodd;clip-rule:evenodd;fill:#FFFFFF;}
	.st21{filter:url(#Adobe_OpacityMaskFilter_7_);}
	.st22{mask:url(#react-mask-934_2_);}
	.st23{fill-rule:evenodd;clip-rule:evenodd;fill:#FF4F6D;}
	.st24{fill-rule:evenodd;clip-rule:evenodd;fill-opacity:0.6;}
	.st25{filter:url(#Adobe_OpacityMaskFilter_8_);}
	.st26{mask:url(#react-mask-925_1_);}
	.st27{fill-rule:evenodd;clip-rule:evenodd;fill:#28354B;}
	.st28{filter:url(#Adobe_OpacityMaskFilter_9_);}
	.st29{mask:url(#react-mask-924_1_);}
	.st30{fill-rule:evenodd;clip-rule:evenodd;fill:#4A312C;}
</style>
<desc
   id="desc4">Created with getavataaars.com</desc>
<g
   id="g176"
   transform="translate(110.33898,-10.084746)">
	<g
   transform="translate(-825,-1100)"
   id="g174">
		<g
   transform="translate(825,1100)"
   id="g172">
			<g
   id="Circle"
   transform="translate(12,40)">
				<g
   id="Circle-Background">
					<circle
   class="st0"
   cx="120"
   cy="120"
   r="120"
   id="circle6"
   style="clip-rule:evenodd;fill:#e6e6e6;fill-rule:evenodd" />
				</g>
				<defs
   id="defs12">
					<filter
   id="Adobe_OpacityMaskFilter"
   filterUnits="userSpaceOnUse"
   x="0"
   y="0"
   width="240"
   height="240">
						<feColorMatrix
   type="matrix"
   values="1 0 0 0 0  0 1 0 0 0  0 0 1 0 0  0 0 0 1 0"
   id="feColorMatrix9" />
					</filter>
				</defs>
				<mask
   maskUnits="userSpaceOnUse"
   x="0"
   y="0"
   width="240"
   height="240"
   id="mask-2_1_">
					<g
   class="st1"
   id="g15"
   style="filter:url(#Adobe_OpacityMaskFilter)">
						<circle
   id="path-1_1_"
   class="st2"
   cx="120"
   cy="120"
   r="120"
   style="clip-rule:evenodd;fill:#ffffff;fill-rule:evenodd" />
					</g>
				</mask>
				<g
   class="st3"
   mask="url(#mask-2_1_)"
   id="g20">
					<rect
   class="st4"
   width="240"
   height="240"
   id="rect18"
   x="0"
   y="0"
   style="clip-rule:evenodd;fill:#2c3e50;fill-rule:evenodd" />
				</g>
			</g>
			<g
   id="Mask">
			</g>
			<defs
   id="defs27">
				<filter
   id="Adobe_OpacityMaskFilter_1_"
   filterUnits="userSpaceOnUse"
   x="-1"
   y="0"
   width="265"
   height="280">
					<feColorMatrix
   type="matrix"
   values="1 0 0 0 0  0 1 0 0 0  0 0 1 0 0  0 0 0 1 0"
   id="feColorMatrix24" />
				</filter>
			</defs>
			<mask
   maskUnits="userSpaceOnUse"
   x="-1"
   y="0"
   width="265"
   height="280"
   id="mask-4_1_">
				<g
   class="st5"
   id="g30"
   style="filter:url(#Adobe_OpacityMaskFilter_1_)">
					<path
   id="path-3_1_"
   class="st2"
   d="m 12,160 c 0,66.3 53.7,120 120,120 66.3,0 120,-53.7 120,-120 h 12 V 0 H 0 v 160 z"
   inkscape:connector-curvature="0"
   style="clip-rule:evenodd;fill:#ffffff;fill-rule:evenodd" />
				</g>
			</mask>
			<g
   id="Avataaar"
   class="st6"
   mask="url(#mask-4_1_)">
				<g
   id="Body"
   transform="translate(32,36)">
					<g
   id="g35">
						<path
   class="st7"
   d="M 124,144.6 V 163 h 4 v 0 c 39.8,0 72,32.2 72,72 v 9 H 0 v -9 c 0,-39.8 32.2,-72 72,-72 v 0 h 4 V 144.6 C 58.8,136.4 46.4,119.7 44.3,99.9 38.5,99.1 34,94.1 34,88 V 74 C 34,68.1 38.3,63.1 44,62.2 V 56 56 C 44,25.1 69.1,0 100,0 v 0 0 c 30.9,0 56,25.1 56,56 v 6.2 c 5.7,1 10,5.9 10,11.8 v 14 c 0,6.1 -4.5,11.1 -10.3,11.9 -2.1,19.8 -14.5,36.5 -31.7,44.7 z"
   id="path33"
   inkscape:connector-curvature="0"
   style="clip-rule:evenodd;fill:#d0c6ac;fill-rule:evenodd" />
					</g>
					<defs
   id="defs40">
						<filter
   id="Adobe_OpacityMaskFilter_2_"
   filterUnits="userSpaceOnUse"
   x="-32"
   y="0"
   width="264"
   height="244">
							<feColorMatrix
   type="matrix"
   values="1 0 0 0 0  0 1 0 0 0  0 0 1 0 0  0 0 0 1 0"
   id="feColorMatrix37" />
						</filter>
					</defs>
					<mask
   maskUnits="userSpaceOnUse"
   x="-32"
   y="0"
   width="264"
   height="244"
   id="mask-6_1_">
						<g
   class="st8"
   id="g43"
   style="filter:url(#Adobe_OpacityMaskFilter_2_)">
							<path
   id="path-5_1_"
   class="st2"
   d="M 124,144.6 V 163 h 4 v 0 c 39.8,0 72,32.2 72,72 v 9 H 0 v -9 c 0,-39.8 32.2,-72 72,-72 v 0 h 4 V 144.6 C 58.8,136.4 46.4,119.7 44.3,99.9 38.5,99.1 34,94.1 34,88 V 74 C 34,68.1 38.3,63.1 44,62.2 V 56 56 C 44,25.1 69.1,0 100,0 v 0 0 c 30.9,0 56,25.1 56,56 v 6.2 c 5.7,1 10,5.9 10,11.8 v 14 c 0,6.1 -4.5,11.1 -10.3,11.9 -2.1,19.8 -14.5,36.5 -31.7,44.7 z"
   inkscape:connector-curvature="0"
   style="clip-rule:evenodd;fill:#ffffff;fill-rule:evenodd" />
						</g>
					</mask>
					<g
   class="st9"
   mask="url(#mask-6_1_)"
   id="g49">
						<g
   id="Color"
   transform="translate(-32)">
							<rect
   class="st10"
   width="264"
   height="244"
   id="rect46"
   x="0"
   y="0"
   style="clip-rule:evenodd;fill:#edb98a;fill-rule:evenodd" />
						</g>
					</g>
					<defs
   id="defs54">
						<filter
   id="Adobe_OpacityMaskFilter_3_"
   filterUnits="userSpaceOnUse"
   x="44"
   y="79"
   width="112"
   height="79">
							<feColorMatrix
   type="matrix"
   values="1 0 0 0 0  0 1 0 0 0  0 0 1 0 0  0 0 0 1 0"
   id="feColorMatrix51" />
						</filter>
					</defs>
					<mask
   maskUnits="userSpaceOnUse"
   x="44"
   y="79"
   width="112"
   height="79"
   id="mask-6_2_">
						<g
   class="st11"
   id="g57"
   style="filter:url(#Adobe_OpacityMaskFilter_3_)">
							<path
   id="path-5_2_"
   class="st2"
   d="M 124,144.6 V 163 h 4 v 0 c 39.8,0 72,32.2 72,72 v 9 H 0 v -9 c 0,-39.8 32.2,-72 72,-72 v 0 h 4 V 144.6 C 58.8,136.4 46.4,119.7 44.3,99.9 38.5,99.1 34,94.1 34,88 V 74 C 34,68.1 38.3,63.1 44,62.2 V 56 56 C 44,25.1 69.1,0 100,0 v 0 0 c 30.9,0 56,25.1 56,56 v 6.2 c 5.7,1 10,5.9 10,11.8 v 14 c 0,6.1 -4.5,11.1 -10.3,11.9 -2.1,19.8 -14.5,36.5 -31.7,44.7 z"
   inkscape:connector-curvature="0"
   style="clip-rule:evenodd;fill:#ffffff;fill-rule:evenodd" />
						</g>
					</mask>
					<path
   id="Neck-Shadow"
   class="st12"
   d="m 156,79 v 23 c 0,30.9 -25.1,56 -56,56 -30.9,0 -56,-25.1 -56,-56 V 79 94 c 0,30.9 25.1,56 56,56 30.9,0 56,-25.1 56,-56 z"
   mask="url(#mask-6_2_)"
   inkscape:connector-curvature="0"
   style="clip-rule:evenodd;fill-opacity:0.1;fill-rule:evenodd" />
				</g>
				<g
   transform="translate(0,170)"
   id="g92">
					<g
   id="Clothes">
						<path
   class="st0"
   d="m 166,29.3 c 37,3 66,34 66,71.8 V 110 H 32 v -8.9 C 32,63 61.6,31.8 99,29.2 c 0,0.4 0,0.7 0,1.1 0,11.9 15,21.5 33.5,21.5 18.5,0 33.5,-9.6 33.5,-21.5 0,-0.3 0,-0.7 0,-1 z"
   id="path62"
   inkscape:connector-curvature="0"
   style="clip-rule:evenodd;fill:#e6e6e6;fill-rule:evenodd" />
					</g>
					<defs
   id="defs68">
						<filter
   id="Adobe_OpacityMaskFilter_4_"
   filterUnits="userSpaceOnUse"
   x="0"
   y="0"
   width="264"
   height="110">
							<feColorMatrix
   type="matrix"
   values="1 0 0 0 0  0 1 0 0 0  0 0 1 0 0  0 0 0 1 0"
   id="feColorMatrix65" />
						</filter>
					</defs>
					<mask
   maskUnits="userSpaceOnUse"
   x="0"
   y="0"
   width="264"
   height="110"
   id="react-mask-952_1_">
						<g
   class="st13"
   id="g71"
   style="filter:url(#Adobe_OpacityMaskFilter_4_)">
							<path
   id="react-path-951_1_"
   class="st2"
   d="m 166,29.3 c 37,3 66,34 66,71.8 V 110 H 32 v -8.9 C 32,63 61.6,31.8 99,29.2 c 0,0.4 0,0.7 0,1.1 0,11.9 15,21.5 33.5,21.5 18.5,0 33.5,-9.6 33.5,-21.5 0,-0.3 0,-0.7 0,-1 z"
   inkscape:connector-curvature="0"
   style="clip-rule:evenodd;fill:#ffffff;fill-rule:evenodd" />
						</g>
					</mask>
					<g
   class="st14"
   mask="url(#react-mask-952_1_)"
   id="g76">
						<rect
   class="st2"
   width="264"
   height="110"
   id="rect74"
   x="0"
   y="0"
   style="clip-rule:evenodd;fill:#ffffff;fill-rule:evenodd" />
					</g>
					<defs
   id="defs81">
						<filter
   id="Adobe_OpacityMaskFilter_5_"
   filterUnits="userSpaceOnUse"
   x="92.900002"
   y="4.9000001"
   width="79.300003"
   height="53.799999">
							<feColorMatrix
   type="matrix"
   values="1 0 0 0 0  0 1 0 0 0  0 0 1 0 0  0 0 0 1 0"
   id="feColorMatrix78" />
						</filter>
					</defs>
					<mask
   maskUnits="userSpaceOnUse"
   x="92.9"
   y="4.9"
   width="79.3"
   height="53.8"
   id="react-mask-952_2_">
						<g
   class="st15"
   id="g84"
   style="filter:url(#Adobe_OpacityMaskFilter_5_)">
							<path
   id="react-path-951_2_"
   class="st2"
   d="m 166,29.3 c 37,3 66,34 66,71.8 V 110 H 32 v -8.9 C 32,63 61.6,31.8 99,29.2 c 0,0.4 0,0.7 0,1.1 0,11.9 15,21.5 33.5,21.5 18.5,0 33.5,-9.6 33.5,-21.5 0,-0.3 0,-0.7 0,-1 z"
   inkscape:connector-curvature="0"
   style="clip-rule:evenodd;fill:#ffffff;fill-rule:evenodd" />
						</g>
					</mask>
					<g
   id="Shadowy"
   class="st16"
   mask="url(#react-mask-952_2_)"
   style="opacity:0.6">
						<g
   transform="translate(92,4)"
   id="g89">
							<ellipse
   class="st17"
   cx="40.5"
   cy="27.799999"
   rx="39.599998"
   ry="26.9"
   id="ellipse87"
   style="clip-rule:evenodd;fill-opacity:0.16000001;fill-rule:evenodd" />
						</g>
					</g>
				</g>
				<g
   id="Face"
   transform="translate(76,82)">
					<g
   transform="translate(2,52)"
   id="g123">
						<g
   id="Mouth">
							<path
   class="st18"
   d="M 35.1,15.1 C 36.2,24.6 44.2,32 54,32 c 9.8,0 17.9,-7.4 18.9,-17 0.1,-0.8 -0.8,-2 -1.8,-2 -14.9,0 -26.3,0 -34,0 -1.1,0 -2.1,1.2 -2,2.1 z"
   id="path94"
   inkscape:connector-curvature="0"
   style="clip-rule:evenodd;fill-opacity:0.7;fill-rule:evenodd" />
						</g>
						<defs
   id="defs100">
							<filter
   id="Adobe_OpacityMaskFilter_6_"
   filterUnits="userSpaceOnUse"
   x="39"
   y="2"
   width="31"
   height="16">
								<feColorMatrix
   type="matrix"
   values="1 0 0 0 0  0 1 0 0 0  0 0 1 0 0  0 0 0 1 0"
   id="feColorMatrix97" />
							</filter>
						</defs>
						<mask
   maskUnits="userSpaceOnUse"
   x="39"
   y="2"
   width="31"
   height="16"
   id="react-mask-934_1_">
							<g
   class="st19"
   id="g103"
   style="filter:url(#Adobe_OpacityMaskFilter_6_)">
								<path
   id="react-path-933_1_"
   class="st2"
   d="M 35.1,15.1 C 36.2,24.6 44.2,32 54,32 c 9.8,0 17.9,-7.4 18.9,-17 0.1,-0.8 -0.8,-2 -1.8,-2 -14.9,0 -26.3,0 -34,0 -1.1,0 -2.1,1.2 -2,2.1 z"
   inkscape:connector-curvature="0"
   style="clip-rule:evenodd;fill:#ffffff;fill-rule:evenodd" />
							</g>
						</mask>
						<path
   id="Teeth"
   class="st20"
   d="m 44,2 h 21 c 2.8,0 5,2.2 5,5 v 6 c 0,2.8 -2.2,5 -5,5 H 44 c -2.8,0 -5,-2.2 -5,-5 V 7 c 0,-2.8 2.2,-5 5,-5 z"
   mask="url(#react-mask-934_1_)"
   inkscape:connector-curvature="0"
   style="clip-rule:evenodd;fill:#ffffff;fill-rule:evenodd" />
						<defs
   id="defs110">
							<filter
   id="Adobe_OpacityMaskFilter_7_"
   filterUnits="userSpaceOnUse"
   x="38"
   y="24"
   width="32"
   height="22">
								<feColorMatrix
   type="matrix"
   values="1 0 0 0 0  0 1 0 0 0  0 0 1 0 0  0 0 0 1 0"
   id="feColorMatrix107" />
							</filter>
						</defs>
						<mask
   maskUnits="userSpaceOnUse"
   x="38"
   y="24"
   width="32"
   height="22"
   id="react-mask-934_2_">
							<g
   class="st21"
   id="g113"
   style="filter:url(#Adobe_OpacityMaskFilter_7_)">
								<path
   id="react-path-933_2_"
   class="st2"
   d="M 35.1,15.1 C 36.2,24.6 44.2,32 54,32 c 9.8,0 17.9,-7.4 18.9,-17 0.1,-0.8 -0.8,-2 -1.8,-2 -14.9,0 -26.3,0 -34,0 -1.1,0 -2.1,1.2 -2,2.1 z"
   inkscape:connector-curvature="0"
   style="clip-rule:evenodd;fill:#ffffff;fill-rule:evenodd" />
							</g>
						</mask>
						<g
   id="Tongue"
   class="st22"
   mask="url(#react-mask-934_2_)">
							<g
   transform="translate(38,24)"
   id="g120">
								<circle
   class="st23"
   cx="11"
   cy="11"
   r="11"
   id="circle116"
   style="clip-rule:evenodd;fill:#ff4f6d;fill-rule:evenodd" />
								<circle
   class="st23"
   cx="21"
   cy="11"
   r="11"
   id="circle118"
   style="clip-rule:evenodd;fill:#ff4f6d;fill-rule:evenodd" />
							</g>
						</g>
					</g>
					<g
   transform="translate(28,40)"
   id="g126">
						<path
   id="Nose"
   class="st17"
   d="m 16,8 c 0,4.4 5.4,8 12,8 v 0 c 6.6,0 12,-3.6 12,-8"
   inkscape:connector-curvature="0"
   style="clip-rule:evenodd;fill-opacity:0.16000001;fill-rule:evenodd" />
					</g>
					<g
   transform="translate(0,8)"
   id="g131">
						<path
   id="Squint"
   class="st24"
   d="M 16.2,22.4 C 18,18.6 22.2,16 27,16 c 4.8,0 9,2.6 10.8,6.4 0.6,1.1 -0.2,2 -1,1.4 -2.5,-2.1 -5.9,-3.4 -9.8,-3.4 -3.7,0 -7.1,1.2 -9.6,3.2 -0.9,0.7 -1.8,0 -1.2,-1.2 z"
   inkscape:connector-curvature="0"
   style="clip-rule:evenodd;fill-opacity:0.6;fill-rule:evenodd" />
						<path
   class="st24"
   d="M 74.2,22.4 C 76,18.6 80.2,16 85,16 c 4.8,0 9,2.6 10.8,6.4 0.6,1.1 -0.2,2 -1,1.4 -2.5,-2.1 -5.9,-3.4 -9.8,-3.4 -3.7,0 -7.1,1.2 -9.6,3.2 -0.9,0.7 -1.8,0 -1.2,-1.2 z"
   id="path129"
   inkscape:connector-curvature="0"
   style="clip-rule:evenodd;fill-opacity:0.6;fill-rule:evenodd" />
					</g>
					<g
   id="g136">
						<path
   id="Eyebrow"
   class="st24"
   d="m 26.5,6.1 c -5.8,0.3 -15.2,4.5 -15,10.3 0,0.2 0.3,0.3 0.4,0.1 2.8,-3 22.3,-5.9 29.2,-4.4 0.6,0.1 1.1,-0.5 0.7,-0.9 C 38.5,7.5 31.7,5.9 26.5,6.1"
   inkscape:connector-curvature="0"
   style="clip-rule:evenodd;fill-opacity:0.6;fill-rule:evenodd" />
						<path
   class="st24"
   d="m 86.5,6.1 c 5.8,0.3 15.2,4.5 15,10.3 0,0.2 -0.3,0.3 -0.4,0.1 -2.8,-3 -22.3,-5.9 -29.2,-4.4 -0.6,0.1 -1.1,-0.5 -0.7,-0.9 3.3,-3.7 10.1,-5.3 15.3,-5.1"
   id="path134"
   inkscape:connector-curvature="0"
   style="clip-rule:evenodd;fill-opacity:0.6;fill-rule:evenodd" />
					</g>
				</g>
				<g
   id="Top">
					<defs
   id="defs142">
						<filter
   id="Adobe_OpacityMaskFilter_8_"
   filterUnits="userSpaceOnUse"
   x="-1"
   y="0"
   width="264"
   height="280">
							<feColorMatrix
   type="matrix"
   values="1 0 0 0 0  0 1 0 0 0  0 0 1 0 0  0 0 0 1 0"
   id="feColorMatrix139" />
						</filter>
					</defs>
					<mask
   maskUnits="userSpaceOnUse"
   x="-1"
   y="0"
   width="264"
   height="280"
   id="react-mask-925_1_">
						<g
   class="st25"
   id="g145"
   style="filter:url(#Adobe_OpacityMaskFilter_8_)">
							<rect
   id="react-path-927_1_"
   class="st2"
   width="264"
   height="280"
   x="0"
   y="0"
   style="clip-rule:evenodd;fill:#ffffff;fill-rule:evenodd" />
						</g>
					</mask>
					<g
   class="st26"
   mask="url(#react-mask-925_1_)"
   id="g168">
						<g
   transform="translate(-1)"
   id="g166">
							<g
   id="Short-Hair">
								<path
   class="st27"
   d="m 183.7,38.9 c 5.4,-5 6.7,-15 3.6,-21.5 -3.8,-8 -11.4,-9 -18.7,-5.5 -6.9,3.3 -13.1,4.4 -20.6,2.8 C 140.7,13.2 133.9,10.4 126.4,10 114,9.3 102,13.9 93.6,23.1 c -1.6,1.8 -2.9,3.8 -4.1,5.8 -1,1.6 -2.1,3.4 -2.5,5.3 -0.2,0.9 0.2,3.1 -0.3,3.8 -0.5,0.8 -2.3,1.5 -3.1,2.1 -1.6,1.2 -2.9,2.5 -4.2,4 -2.7,3.2 -4.1,6.6 -5.4,10.6 -4.1,13.2 -4.5,29 0.9,42 0.7,1.7 2.9,5.4 4.2,1.6 0.3,-0.7 -0.3,-3.2 -0.3,-3.9 0,-2.7 1.5,-20.7 8,-30.8 2.1,-3.3 12,-15.6 14,-15.7 1.1,1.7 11.9,12.5 39.9,11.2 12.7,-0.6 22.4,-6.3 24.7,-8.7 1,5.5 13,13.8 14.8,17.2 5.3,9.8 6.4,30.3 8.4,30.3 2,0 3.5,-5.2 3.9,-6.2 3.1,-7.4 3.6,-16.6 3.3,-24.6 C 195.5,57 191.3,45.9 183.7,38.9 Z"
   id="path148"
   inkscape:connector-curvature="0"
   style="clip-rule:evenodd;fill:#28354b;fill-rule:evenodd" />
							</g>
							<defs
   id="defs154">
								<filter
   id="Adobe_OpacityMaskFilter_9_"
   filterUnits="userSpaceOnUse"
   x="0"
   y="0"
   width="264"
   height="280">
									<feColorMatrix
   type="matrix"
   values="1 0 0 0 0  0 1 0 0 0  0 0 1 0 0  0 0 0 1 0"
   id="feColorMatrix151" />
								</filter>
							</defs>
							<mask
   maskUnits="userSpaceOnUse"
   x="0"
   y="0"
   width="264"
   height="280"
   id="react-mask-924_1_">
								<g
   class="st28"
   id="g157"
   style="filter:url(#Adobe_OpacityMaskFilter_9_)">
									<path
   id="react-path-926_1_"
   class="st2"
   d="m 183.7,38.9 c 5.4,-5 6.7,-15 3.6,-21.5 -3.8,-8 -11.4,-9 -18.7,-5.5 -6.9,3.3 -13.1,4.4 -20.6,2.8 C 140.7,13.2 133.9,10.4 126.4,10 114,9.3 102,13.9 93.6,23.1 c -1.6,1.8 -2.9,3.8 -4.1,5.8 -1,1.6 -2.1,3.4 -2.5,5.3 -0.2,0.9 0.2,3.1 -0.3,3.8 -0.5,0.8 -2.3,1.5 -3.1,2.1 -1.6,1.2 -2.9,2.5 -4.2,4 -2.7,3.2 -4.1,6.6 -5.4,10.6 -4.1,13.2 -4.5,29 0.9,42 0.7,1.7 2.9,5.4 4.2,1.6 0.3,-0.7 -0.3,-3.2 -0.3,-3.9 0,-2.7 1.5,-20.7 8,-30.8 2.1,-3.3 12,-15.6 14,-15.7 1.1,1.7 11.9,12.5 39.9,11.2 12.7,-0.6 22.4,-6.3 24.7,-8.7 1,5.5 13,13.8 14.8,17.2 5.3,9.8 6.4,30.3 8.4,30.3 2,0 3.5,-5.2 3.9,-6.2 3.1,-7.4 3.6,-16.6 3.3,-24.6 C 195.5,57 191.3,45.9 183.7,38.9 Z"
   inkscape:connector-curvature="0"
   style="clip-rule:evenodd;fill:#ffffff;fill-rule:evenodd" />
								</g>
							</mask>
							<g
   class="st29"
   mask="url(#react-mask-924_1_)"
   id="g164">
								<g
   id="g162">
									<rect
   class="st30"
   width="264"
   height="280"
   id="rect160"
   x="0"
   y="0"
   style="clip-rule:evenodd;fill:#4a312c;fill-rule:evenodd" />
								</g>
							</g>
						</g>
					</g>
				</g>
			</g>
		</g>
	</g>
</g>
<g
   inkscape:groupmode="layer"
   id="layer1"
   inkscape:label="Layer 1"
   style="display:inline"><circle
     style="fill:#001f29;fill-opacity:1;stroke:none"
     id="path4694"
     cx="-123.74575"
     cy="158.98306"
     r="121.61017" /><rect
     style="fill:#000000;fill-opacity:1;stroke:none"
     id="rect4698"
     width="183.72791"
     height="84.732948"
     x="-215.6795"
     y="199.30498"
     rx="25"
     ry="25" /><path
     style="fill:#1a1a1a;stroke:none;stroke-width:1.29421198px;stroke-linecap:butt;stroke-linejoin:miter;stroke-opacity:1"
     d="m -163.30154,199.16415 c 0,0 -1.9427,20.6159 26.20332,28.74808 0,0 22.98154,6.13337 40.669636,-4.4242 17.688085,-10.55758 15.615699,-24.18835 15.615699,-24.18835 z"
     id="path4702"
     inkscape:connector-curvature="0" /><path
     style="fill:#ecb889;fill-opacity:1;stroke:none;stroke-width:1px;stroke-linecap:butt;stroke-linejoin:miter;stroke-opacity:1"
     d="m -146.3353,181.13432 v 18.4 l -9,0.2 c 0,0 -1.57807,15.15293 21.28306,21.13037 0,0 18.66642,4.50931 33.03327,-3.25089 14.366849,-7.7602 12.683669,-17.77948 12.683669,-17.77948 l -10,-0.3 v -18.4 c 0,0 -14.114229,5.64842 -23.762049,5.33382 0,0 -11.45767,1.07752 -24.23795,-5.33382 z"
     id="path4700"
     inkscape:connector-curvature="0"
     sodipodi:nodetypes="ccccsccccc" /><path
     style="fill:#d5a67c;fill-opacity:1;stroke:none;stroke-width:1px;stroke-linecap:butt;stroke-linejoin:miter;stroke-opacity:1"
     d="m -146.29021,185.417 v 7.55047 c 0,0 28.62884,12.37436 47.819598,-0.10487 v -11.32569 l -48.658538,0.52433 z"
     id="path4769"
     inkscape:connector-curvature="0" /><path
     style="fill:#ecb889;fill-opacity:1;stroke:none;stroke-width:1px;stroke-linecap:butt;stroke-linejoin:miter;stroke-opacity:1"
     d="m -155.87797,49.9 c 0,0 -14.67288,12.015254 -17.63898,23.583051 0,0 -5.15593,17.447458 -4.06102,26.816949 0,0 -0.9072,3.58559 -3.28008,0.10042 0,0 -7.86017,2.07627 -8.75,10.23305 v 17.05509 c 0,0 0.95805,8.48432 10.23008,10.21144 0,0 10.29347,31.08164 31.7,44.7 0,0 22.78891,12.38879 48.000004,0 0,0 29.7995,-22.06063 31.7,-44.7 0,0 8.65593,-1.09068 10.13898,-9.98898 v -17.79661 c 0,0 -0.99152,-8.40932 -9.83898,-9.91441 0,0 -1.2839,0.27458 -2.32203,-6.547458 0,0 -3.26272,-17.648305 -6.52543,-24.322034 0,0 -15.4161,-12.949999 -14.75254,-16.930508 0,0 -11.052544,8.625423 -25.883054,8.922034 0,0 -24.48898,2.071187 -38.71695,-11.422034 z"
     id="path4710"
     inkscape:connector-curvature="0" /><path
     style="fill:#1b1b1b;fill-opacity:1;stroke:none;stroke-width:1px;stroke-linecap:butt;stroke-linejoin:miter;stroke-opacity:1"
     d="m -165.99831,102.5 6.27373,-8.775424 c 0,0 19.27966,-3.559322 23.58051,4.449153 0,0 -18.18305,-6.474576 -29.85424,4.326271 z"
     id="path4716"
     inkscape:connector-curvature="0" /><path
     style="fill:#473729;fill-opacity:1;stroke:none;stroke-width:1px;stroke-linecap:butt;stroke-linejoin:miter;stroke-opacity:1"
     d="m -140.97567,150.35841 c 0,0 0.0268,-1.25854 0.62437,-2.13943 0.3285,-0.48427 1.12729,-0.88306 1.61991,-0.84298 l 12.57558,1.02324 8.38235,-0.0495 13.58334,-1.03403 c 0,0 1.16318,1.358 0.94072,2.91521 -0.22246,1.5572 -0.31306,2.07009 -1.6478,3.70145 -0.3272,0.3999 -3.45927,1.99853 -6.57651,2.12597 -6.54269,0.26749 -15.08042,0.16447 -21.18963,0.005 -2.85389,-0.0745 -5.87367,-1.60661 -5.87367,-1.60661 0,0 -2.43866,-1.15291 -2.43866,-4.09825 z"
     id="path4720"
     inkscape:connector-curvature="0"
     sodipodi:nodetypes="csscccscssccc" /><path
     style="fill:#202020;stroke:none;stroke-width:1px;stroke-linecap:butt;stroke-linejoin:miter;stroke-opacity:1;fill-opacity:0.79797977"
     d="m -163.48981,115.23666 c 0,0 1.85381,-5.48728 8.97245,-7.04448 0,0 9.63983,-1.33475 13.05085,7.04448 0,0 0,2.07627 -2.15042,-0.0742 0,0 -6.85911,-5.59846 -17.12924,-0.40778 0,0 -2.15042,2.40994 -2.74364,0.48198 z"
     id="path4763"
     inkscape:connector-curvature="0"
     sodipodi:nodetypes="cccccc" /><path
     sodipodi:nodetypes="cccccc"
     inkscape:connector-curvature="0"
     id="path4765"
     d="m -105.3932,115.23666 c 0,0 1.85381,-5.48728 8.972451,-7.04448 0,0 9.63983,-1.33475 13.05085,7.04448 0,0 0,2.07627 -2.15042,-0.0742 0,0 -6.85911,-5.59846 -17.129241,-0.40778 0,0 -2.15042,2.40994 -2.74364,0.48198 z"
     style="fill:#202020;stroke:none;stroke-width:1px;stroke-linecap:butt;stroke-linejoin:miter;stroke-opacity:1;fill-opacity:0.79797977" /><path
     inkscape:connector-curvature="0"
     id="path4771"
     d="m -80.426402,102.5 -5.80278,-8.775424 c 0,0 -17.832388,-3.559322 -21.810388,4.449153 0,0 16.818098,-6.474576 27.613168,4.326271 z"
     style="fill:#1b1b1b;fill-opacity:1;stroke:none;stroke-width:0.96173441px;stroke-linecap:butt;stroke-linejoin:miter;stroke-opacity:1" /></g><g
   inkscape:groupmode="layer"
   id="layer2"
   inkscape:label="Layer 2"
   style="display:inline" /><path
   style="fill:#000000;stroke:#000000;stroke-width:1px;stroke-linecap:butt;stroke-linejoin:miter;stroke-opacity:1"
   d="m -180.67157,103.81306 c 0,0 2.20203,3.53149 3.32945,-0.12187 0,0 0.23605,-1.76575 -0.23585,-3.39119 0,0 1.33077,-17.048638 3.70365,-21.646095 0,0 7.1,-18.098305 18.2322,-25.362712 0,0 6.23814,9.790678 31.59831,11.125423 25.360163,1.334746 33.001693,-8.625423 33.001693,-8.625423 0,0 1.10847,4.324576 10.00678,12.184745 0,0 6.08051,4.745763 6.37712,9.491526 0,0 3.11441,8.601695 5.9322,25.063556 0,0 1.18644,2.07627 3.26271,-1.48305 0,0 7.71187,-13.050845 3.26272,-38.707625 0,0 -4.32458,-13.704236 -10.54153,-18.049152 0,0 8.16864,-7.607628 4.16441,-19.91695 -4.00424,-12.309322 -16.16526,-8.305084 -16.16526,-8.305084 0,0 -13.94068,6.673728 -19.279663,4.597457 0,0 -27.73305,-7.563559 -35.44491,-4.745762 0,0 -20.76271,2.076271 -30.25424,23.728813 0,0 0.44492,3.559322 -3.33686,6.006356 0,0 -10.02488,4.8319 -12.33197,30.839048 0,0 -1.25841,14.576585 4.71904,27.317989 z"
   id="path4712"
   inkscape:connector-curvature="0" /><path
   style="fill:#c79b74;fill-opacity:1;stroke:none;stroke-width:1px;stroke-linecap:butt;stroke-linejoin:miter;stroke-opacity:1"
   d="m -132.41615,130 h 24 c 0,0 -0.28306,7.36143 -12,8 -11.71694,0.63857 -12,-8 -12,-8 z"
   id="path4714"
   inkscape:connector-curvature="0" /><path
   sodipodi:nodetypes="cccccccsccscc"
   inkscape:connector-curvature="0"
   id="path4728"
   d="m -139.68514,148.53706 4.85773,0.35775 3.82725,0.29647 6.6575,0.33875 6.5692,-0.0192 5.82482,-0.39024 8.5435,-0.40279 c 0,0 0.29272,0.82727 0.13982,1.54005 -0.25651,1.19582 -1.56408,2.33299 -4.74182,2.62866 -5.07177,0.47191 -27.75312,0 -27.75312,0 0,0 -3.7477,0.13708 -4.90997,-1.45643 -0.46596,-0.63885 -0.35386,-2.02891 0.0953,-2.93007 z"
   style="fill:#cccccc;fill-opacity:1;stroke:none;stroke-width:1.07953322px;stroke-linecap:butt;stroke-linejoin:miter;stroke-opacity:1" /><path
   style="fill:#fdfdfd;fill-opacity:1;stroke:none;stroke-width:1.05577743px;stroke-linecap:butt;stroke-linejoin:miter;stroke-opacity:1"
   d="m -139.00946,147.35746 4.92436,0.37629 3.66066,0.29647 6.36772,0.33875 6.28326,-0.0192 5.64994,-0.46889 7.9334,-0.56514 c 0,0 0.47483,0.49687 0.76956,1.31642 0.12033,0.33461 -0.51393,0.94049 -0.75548,1.07917 -0.35041,0.20119 -1.98369,0.46477 -3.62698,0.62463 -4.85102,0.47191 -27.3041,0.12889 -27.3041,0.12889 0,0 -1.42733,-0.22337 -4.23255,-0.56404 -0.69883,-0.0849 -0.63272,-1.09811 -0.68939,-2.07986 l 0.49549,-0.28422 z"
   id="path4722"
   inkscape:connector-curvature="0"
   sodipodi:nodetypes="cccccccssccsccc" /><path
   style="display:inline;fill:#ecb889;fill-opacity:1;stroke:none;stroke-width:1px;stroke-linecap:butt;stroke-linejoin:miter;stroke-opacity:1"
   d="m -140.84327,150.95635 c 0,0 0.17596,0.34131 0.57938,0.44328 1.55456,0.39294 6.35971,1.32402 14.94432,1.46575 2.15561,0.0356 8.53212,0.18494 10.19766,0.11038 4.41292,-0.19754 6.84668,-0.18507 10.98164,-1.39726 0.2674,-0.0784 1.01465,-1.76546 1.29728,-1.85448 0.17947,-0.0565 -0.0919,0.28322 0.0945,0.22201 0,0 1.07939,5.26161 -0.91309,6.72975 -1.99249,1.46815 -36.70364,3.14603 -36.70364,3.14603 0,0 -3.652,-9.60849 -0.682,-10.10751 z"
   id="path4730"
   inkscape:connector-curvature="0"
   sodipodi:nodetypes="cssssscsccc" /></svg>