<?xml version="1.0" encoding="UTF-8" standalone="no"?>
<!-- Generator: Adobe Illustrator 23.0.3, SVG Export Plug-In . SVG Version: 6.00 Build 0)  -->

<svg
   xmlns:dc="http://purl.org/dc/elements/1.1/"
   xmlns:cc="http://creativecommons.org/ns#"
   xmlns:rdf="http://www.w3.org/1999/02/22-rdf-syntax-ns#"
   xmlns:svg="http://www.w3.org/2000/svg"
   xmlns="http://www.w3.org/2000/svg"
   xmlns:sodipodi="http://sodipodi.sourceforge.net/DTD/sodipodi-0.dtd"
   xmlns:inkscape="http://www.inkscape.org/namespaces/inkscape"
   version="1.1"
   id="Layer_1"
   x="0px"
   y="0px"
   viewBox="0 0 264 280"
   style="enable-background:new 0 0 264 280;"
   xml:space="preserve"
   sodipodi:docname="avataaars.svg"
   inkscape:version="0.92.4 (5da689c313, 2019-01-14)"
   inkscape:export-filename="C:\Users\natha\Desktop\NathanPage\img\avataaars2.png"
   inkscape:export-xdpi="96"
   inkscape:export-ydpi="96"><metadata
   id="metadata183"><rdf:RDF><cc:Work
       rdf:about=""><dc:format>image/svg+xml</dc:format><dc:type
         rdf:resource="http://purl.org/dc/dcmitype/StillImage" /><dc:title></dc:title></cc:Work></rdf:RDF></metadata><defs
   id="defs181" /><sodipodi:namedview
   pagecolor="#ffffff"
   bordercolor="#666666"
   borderopacity="1"
   objecttolerance="10"
   gridtolerance="10"
   guidetolerance="10"
   inkscape:pageopacity="0"
   inkscape:pageshadow="2"
   inkscape:window-width="1366"
   inkscape:window-height="705"
   id="namedview179"
   showgrid="false"
   inkscape:zoom="1.19198"
   inkscape:cx="73.453179"
   inkscape:cy="170.60869"
   inkscape:window-x="-8"
   inkscape:window-y="-8"
   inkscape:window-maximized="1"
   inkscape:current-layer="layer1"><inkscape:grid
     type="xygrid"
     id="grid4708" /></sodipodi:namedview>
<style
   type="text/css"
   id="style2">
	.st0{fill-rule:evenodd;clip-rule:evenodd;fill:#E6E6E6;}
	.st1{filter:url(#Adobe_OpacityMaskFilter);}
	.st2{fill-rule:evenodd;clip-rule:evenodd;fill:#FFFFFF;}
	.st3{mask:url(#mask-2_1_);}
	.st4{fill-rule:evenodd;clip-rule:evenodd;fill:#2C3E50;}
	.st5{filter:url(#Adobe_OpacityMaskFilter_1_);}
	.st6{mask:url(#mask-4_1_);}
	.st7{fill-rule:evenodd;clip-rule:evenodd;fill:#D0C6AC;}
	.st8{filter:url(#Adobe_OpacityMaskFilter_2_);}
	.st9{mask:url(#mask-6_1_);}
	.st10{fill-rule:evenodd;clip-rule:evenodd;fill:#EDB98A;}
	.st11{filter:url(#Adobe_OpacityMaskFilter_3_);}
	.st12{mask:url(#mask-6_2_);fill-rule:evenodd;clip-rule:evenodd;fill-opacity:0.1;}
	.st13{filter:url(#Adobe_OpacityMaskFilter_4_);}
	.st14{mask:url(#react-mask-952_1_);}
	.st15{filter:url(#Adobe_OpacityMaskFilter_5_);}
	.st16{opacity:0.6;mask:url(#react-mask-952_2_);}
	.st17{fill-rule:evenodd;clip-rule:evenodd;fill-opacity:0.16;}
	.st18{fill-rule:evenodd;clip-rule:evenodd;fill-opacity:0.7;}
	.st19{filter:url(#Adobe_OpacityMaskFilter_6_);}
	.st20{mask:url(#react-mask-934_1_);fill-rule:evenodd;clip-rule:evenodd;fill:#FFFFFF;}
	.st21{filter:url(#Adobe_OpacityMaskFilter_7_);}
	.st22{mask:url(#react-mask-934_2_);}
	.st23{fill-rule:evenodd;clip-rule:evenodd;fill:#FF4F6D;}
	.st24{fill-rule:evenodd;clip-rule:evenodd;fill-opacity:0.6;}
	.st25{filter:url(#Adobe_OpacityMaskFilter_8_);}
	.st26{mask:url(#react-mask-925_1_);}
	.st27{fill-rule:evenodd;clip-rule:evenodd;fill:#28354B;}
	.st28{filter:url(#Adobe_OpacityMaskFilter_9_);}
	.st29{mask:url(#react-mask-924_1_);}
	.st30{fill-rule:evenodd;clip-rule:evenodd;fill:#4A312C;}
</style>
<desc
   id="desc4">Created with getavataaars.com</desc>
<g
   id="g176"
   transform="translate(584.91525,-10.084746)">
	<g
   transform="translate(-825,-1100)"
   id="g174">
		<g
   transform="translate(825,1100)"
   id="g172">
			<g
   id="Circle"
   transform="translate(12,40)">
				<g
   id="Circle-Background">
					<circle
   class="st0"
   cx="120"
   cy="120"
   r="120"
   id="circle6"
   style="clip-rule:evenodd;fill:#e6e6e6;fill-rule:evenodd" />
				</g>
				<defs
   id="defs12">
					<filter
   id="Adobe_OpacityMaskFilter"
   filterUnits="userSpaceOnUse"
   x="0"
   y="0"
   width="240"
   height="240">
						<feColorMatrix
   type="matrix"
   values="1 0 0 0 0  0 1 0 0 0  0 0 1 0 0  0 0 0 1 0"
   id="feColorMatrix9" />
					</filter>
				</defs>
				<mask
   maskUnits="userSpaceOnUse"
   x="0"
   y="0"
   width="240"
   height="240"
   id="mask-2_1_">
					<g
   class="st1"
   id="g15"
   style="filter:url(#Adobe_OpacityMaskFilter)">
						<circle
   id="path-1_1_"
   class="st2"
   cx="120"
   cy="120"
   r="120"
   style="clip-rule:evenodd;fill:#ffffff;fill-rule:evenodd" />
					</g>
				</mask>
				<g
   class="st3"
   mask="url(#mask-2_1_)"
   id="g20">
					<rect
   class="st4"
   width="240"
   height="240"
   id="rect18"
   x="0"
   y="0"
   style="clip-rule:evenodd;fill:#2c3e50;fill-rule:evenodd" />
				</g>
			</g>
			<g
   id="Mask">
			</g>
			<defs
   id="defs27">
				<filter
   id="Adobe_OpacityMaskFilter_1_"
   filterUnits="userSpaceOnUse"
   x="-1"
   y="0"
   width="265"
   height="280">
					<feColorMatrix
   type="matrix"
   values="1 0 0 0 0  0 1 0 0 0  0 0 1 0 0  0 0 0 1 0"
   id="feColorMatrix24" />
				</filter>
			</defs>
			<mask
   maskUnits="userSpaceOnUse"
   x="-1"
   y="0"
   width="265"
   height="280"
   id="mask-4_1_">
				<g
   class="st5"
   id="g30"
   style="filter:url(#Adobe_OpacityMaskFilter_1_)">
					<path
   id="path-3_1_"
   class="st2"
   d="m 12,160 c 0,66.3 53.7,120 120,120 66.3,0 120,-53.7 120,-120 h 12 V 0 H 0 v 160 z"
   inkscape:connector-curvature="0"
   style="clip-rule:evenodd;fill:#ffffff;fill-rule:evenodd" />
				</g>
			</mask>
			<g
   id="Avataaar"
   class="st6"
   mask="url(#mask-4_1_)">
				<g
   id="Body"
   transform="translate(32,36)">
					<g
   id="g35">
						<path
   class="st7"
   d="M 124,144.6 V 163 h 4 v 0 c 39.8,0 72,32.2 72,72 v 9 H 0 v -9 c 0,-39.8 32.2,-72 72,-72 v 0 h 4 V 144.6 C 58.8,136.4 46.4,119.7 44.3,99.9 38.5,99.1 34,94.1 34,88 V 74 C 34,68.1 38.3,63.1 44,62.2 V 56 56 C 44,25.1 69.1,0 100,0 v 0 0 c 30.9,0 56,25.1 56,56 v 6.2 c 5.7,1 10,5.9 10,11.8 v 14 c 0,6.1 -4.5,11.1 -10.3,11.9 -2.1,19.8 -14.5,36.5 -31.7,44.7 z"
   id="path33"
   inkscape:connector-curvature="0"
   style="clip-rule:evenodd;fill:#d0c6ac;fill-rule:evenodd" />
					</g>
					<defs
   id="defs40">
						<filter
   id="Adobe_OpacityMaskFilter_2_"
   filterUnits="userSpaceOnUse"
   x="-32"
   y="0"
   width="264"
   height="244">
							<feColorMatrix
   type="matrix"
   values="1 0 0 0 0  0 1 0 0 0  0 0 1 0 0  0 0 0 1 0"
   id="feColorMatrix37" />
						</filter>
					</defs>
					<mask
   maskUnits="userSpaceOnUse"
   x="-32"
   y="0"
   width="264"
   height="244"
   id="mask-6_1_">
						<g
   class="st8"
   id="g43"
   style="filter:url(#Adobe_OpacityMaskFilter_2_)">
							<path
   id="path-5_1_"
   class="st2"
   d="M 124,144.6 V 163 h 4 v 0 c 39.8,0 72,32.2 72,72 v 9 H 0 v -9 c 0,-39.8 32.2,-72 72,-72 v 0 h 4 V 144.6 C 58.8,136.4 46.4,119.7 44.3,99.9 38.5,99.1 34,94.1 34,88 V 74 C 34,68.1 38.3,63.1 44,62.2 V 56 56 C 44,25.1 69.1,0 100,0 v 0 0 c 30.9,0 56,25.1 56,56 v 6.2 c 5.7,1 10,5.9 10,11.8 v 14 c 0,6.1 -4.5,11.1 -10.3,11.9 -2.1,19.8 -14.5,36.5 -31.7,44.7 z"
   inkscape:connector-curvature="0"
   style="clip-rule:evenodd;fill:#ffffff;fill-rule:evenodd" />
						</g>
					</mask>
					<g
   class="st9"
   mask="url(#mask-6_1_)"
   id="g49">
						<g
   id="Color"
   transform="translate(-32)">
							<rect
   class="st10"
   width="264"
   height="244"
   id="rect46"
   x="0"
   y="0"
   style="clip-rule:evenodd;fill:#edb98a;fill-rule:evenodd" />
						</g>
					</g>
					<defs
   id="defs54">
						<filter
   id="Adobe_OpacityMaskFilter_3_"
   filterUnits="userSpaceOnUse"
   x="44"
   y="79"
   width="112"
   height="79">
							<feColorMatrix
   type="matrix"
   values="1 0 0 0 0  0 1 0 0 0  0 0 1 0 0  0 0 0 1 0"
   id="feColorMatrix51" />
						</filter>
					</defs>
					<mask
   maskUnits="userSpaceOnUse"
   x="44"
   y="79"
   width="112"
   height="79"
   id="mask-6_2_">
						<g
   class="st11"
   id="g57"
   style="filter:url(#Adobe_OpacityMaskFilter_3_)">
							<path
   id="path-5_2_"
   class="st2"
   d="M 124,144.6 V 163 h 4 v 0 c 39.8,0 72,32.2 72,72 v 9 H 0 v -9 c 0,-39.8 32.2,-72 72,-72 v 0 h 4 V 144.6 C 58.8,136.4 46.4,119.7 44.3,99.9 38.5,99.1 34,94.1 34,88 V 74 C 34,68.1 38.3,63.1 44,62.2 V 56 56 C 44,25.1 69.1,0 100,0 v 0 0 c 30.9,0 56,25.1 56,56 v 6.2 c 5.7,1 10,5.9 10,11.8 v 14 c 0,6.1 -4.5,11.1 -10.3,11.9 -2.1,19.8 -14.5,36.5 -31.7,44.7 z"
   inkscape:connector-curvature="0"
   style="clip-rule:evenodd;fill:#ffffff;fill-rule:evenodd" />
						</g>
					</mask>
					<path
   id="Neck-Shadow"
   class="st12"
   d="m 156,79 v 23 c 0,30.9 -25.1,56 -56,56 -30.9,0 -56,-25.1 -56,-56 V 79 94 c 0,30.9 25.1,56 56,56 30.9,0 56,-25.1 56,-56 z"
   mask="url(#mask-6_2_)"
   inkscape:connector-curvature="0"
   style="clip-rule:evenodd;fill-opacity:0.1;fill-rule:evenodd" />
				</g>
				<g
   transform="translate(0,170)"
   id="g92">
					<g
   id="Clothes">
						<path
   class="st0"
   d="m 166,29.3 c 37,3 66,34 66,71.8 V 110 H 32 v -8.9 C 32,63 61.6,31.8 99,29.2 c 0,0.4 0,0.7 0,1.1 0,11.9 15,21.5 33.5,21.5 18.5,0 33.5,-9.6 33.5,-21.5 0,-0.3 0,-0.7 0,-1 z"
   id="path62"
   inkscape:connector-curvature="0"
   style="clip-rule:evenodd;fill:#e6e6e6;fill-rule:evenodd" />
					</g>
					<defs
   id="defs68">
						<filter
   id="Adobe_OpacityMaskFilter_4_"
   filterUnits="userSpaceOnUse"
   x="0"
   y="0"
   width="264"
   height="110">
							<feColorMatrix
   type="matrix"
   values="1 0 0 0 0  0 1 0 0 0  0 0 1 0 0  0 0 0 1 0"
   id="feColorMatrix65" />
						</filter>
					</defs>
					<mask
   maskUnits="userSpaceOnUse"
   x="0"
   y="0"
   width="264"
   height="110"
   id="react-mask-952_1_">
						<g
   class="st13"
   id="g71"
   style="filter:url(#Adobe_OpacityMaskFilter_4_)">
							<path
   id="react-path-951_1_"
   class="st2"
   d="m 166,29.3 c 37,3 66,34 66,71.8 V 110 H 32 v -8.9 C 32,63 61.6,31.8 99,29.2 c 0,0.4 0,0.7 0,1.1 0,11.9 15,21.5 33.5,21.5 18.5,0 33.5,-9.6 33.5,-21.5 0,-0.3 0,-0.7 0,-1 z"
   inkscape:connector-curvature="0"
   style="clip-rule:evenodd;fill:#ffffff;fill-rule:evenodd" />
						</g>
					</mask>
					<g
   class="st14"
   mask="url(#react-mask-952_1_)"
   id="g76">
						<rect
   class="st2"
   width="264"
   height="110"
   id="rect74"
   x="0"
   y="0"
   style="clip-rule:evenodd;fill:#ffffff;fill-rule:evenodd" />
					</g>
					<defs
   id="defs81">
						<filter
   id="Adobe_OpacityMaskFilter_5_"
   filterUnits="userSpaceOnUse"
   x="92.900002"
   y="4.9000001"
   width="79.300003"
   height="53.799999">
							<feColorMatrix
   type="matrix"
   values="1 0 0 0 0  0 1 0 0 0  0 0 1 0 0  0 0 0 1 0"
   id="feColorMatrix78" />
						</filter>
					</defs>
					<mask
   maskUnits="userSpaceOnUse"
   x="92.9"
   y="4.9"
   width="79.3"
   height="53.8"
   id="react-mask-952_2_">
						<g
   class="st15"
   id="g84"
   style="filter:url(#Adobe_OpacityMaskFilter_5_)">
							<path
   id="react-path-951_2_"
   class="st2"
   d="m 166,29.3 c 37,3 66,34 66,71.8 V 110 H 32 v -8.9 C 32,63 61.6,31.8 99,29.2 c 0,0.4 0,0.7 0,1.1 0,11.9 15,21.5 33.5,21.5 18.5,0 33.5,-9.6 33.5,-21.5 0,-0.3 0,-0.7 0,-1 z"
   inkscape:connector-curvature="0"
   style="clip-rule:evenodd;fill:#ffffff;fill-rule:evenodd" />
						</g>
					</mask>
					<g
   id="Shadowy"
   class="st16"
   mask="url(#react-mask-952_2_)"
   style="opacity:0.6">
						<g
   transform="translate(92,4)"
   id="g89">
							<ellipse
   class="st17"
   cx="40.5"
   cy="27.799999"
   rx="39.599998"
   ry="26.9"
   id="ellipse87"
   style="clip-rule:evenodd;fill-opacity:0.16000001;fill-rule:evenodd" />
						</g>
					</g>
				</g>
				<g
   id="Face"
   transform="translate(76,82)">
					<g
   transform="translate(2,52)"
   id="g123">
						<g
   id="Mouth">
							<path
   class="st18"
   d="M 35.1,15.1 C 36.2,24.6 44.2,32 54,32 c 9.8,0 17.9,-7.4 18.9,-17 0.1,-0.8 -0.8,-2 -1.8,-2 -14.9,0 -26.3,0 -34,0 -1.1,0 -2.1,1.2 -2,2.1 z"
   id="path94"
   inkscape:connector-curvature="0"
   style="clip-rule:evenodd;fill-opacity:0.7;fill-rule:evenodd" />
						</g>
						<defs
   id="defs100">
							<filter
   id="Adobe_OpacityMaskFilter_6_"
   filterUnits="userSpaceOnUse"
   x="39"
   y="2"
   width="31"
   height="16">
								<feColorMatrix
   type="matrix"
   values="1 0 0 0 0  0 1 0 0 0  0 0 1 0 0  0 0 0 1 0"
   id="feColorMatrix97" />
							</filter>
						</defs>
						<mask
   maskUnits="userSpaceOnUse"
   x="39"
   y="2"
   width="31"
   height="16"
   id="react-mask-934_1_">
							<g
   class="st19"
   id="g103"
   style="filter:url(#Adobe_OpacityMaskFilter_6_)">
								<path
   id="react-path-933_1_"
   class="st2"
   d="M 35.1,15.1 C 36.2,24.6 44.2,32 54,32 c 9.8,0 17.9,-7.4 18.9,-17 0.1,-0.8 -0.8,-2 -1.8,-2 -14.9,0 -26.3,0 -34,0 -1.1,0 -2.1,1.2 -2,2.1 z"
   inkscape:connector-curvature="0"
   style="clip-rule:evenodd;fill:#ffffff;fill-rule:evenodd" />
							</g>
						</mask>
						<path
   id="Teeth"
   class="st20"
   d="m 44,2 h 21 c 2.8,0 5,2.2 5,5 v 6 c 0,2.8 -2.2,5 -5,5 H 44 c -2.8,0 -5,-2.2 -5,-5 V 7 c 0,-2.8 2.2,-5 5,-5 z"
   mask="url(#react-mask-934_1_)"
   inkscape:connector-curvature="0"
   style="clip-rule:evenodd;fill:#ffffff;fill-rule:evenodd" />
						<defs
   id="defs110">
							<filter
   id="Adobe_OpacityMaskFilter_7_"
   filterUnits="userSpaceOnUse"
   x="38"
   y="24"
   width="32"
   height="22">
								<feColorMatrix
   type="matrix"
   values="1 0 0 0 0  0 1 0 0 0  0 0 1 0 0  0 0 0 1 0"
   id="feColorMatrix107" />
							</filter>
						</defs>
						<mask
   maskUnits="userSpaceOnUse"
   x="38"
   y="24"
   width="32"
   height="22"
   id="react-mask-934_2_">
							<g
   class="st21"
   id="g113"
   style="filter:url(#Adobe_OpacityMaskFilter_7_)">
								<path
   id="react-path-933_2_"
   class="st2"
   d="M 35.1,15.1 C 36.2,24.6 44.2,32 54,32 c 9.8,0 17.9,-7.4 18.9,-17 0.1,-0.8 -0.8,-2 -1.8,-2 -14.9,0 -26.3,0 -34,0 -1.1,0 -2.1,1.2 -2,2.1 z"
   inkscape:connector-curvature="0"
   style="clip-rule:evenodd;fill:#ffffff;fill-rule:evenodd" />
							</g>
						</mask>
						<g
   id="Tongue"
   class="st22"
   mask="url(#react-mask-934_2_)">
							<g
   transform="translate(38,24)"
   id="g120">
								<circle
   class="st23"
   cx="11"
   cy="11"
   r="11"
   id="circle116"
   style="clip-rule:evenodd;fill:#ff4f6d;fill-rule:evenodd" />
								<circle
   class="st23"
   cx="21"
   cy="11"
   r="11"
   id="circle118"
   style="clip-rule:evenodd;fill:#ff4f6d;fill-rule:evenodd" />
							</g>
						</g>
					</g>
					<g
   transform="translate(28,40)"
   id="g126">
						<path
   id="Nose"
   class="st17"
   d="m 16,8 c 0,4.4 5.4,8 12,8 v 0 c 6.6,0 12,-3.6 12,-8"
   inkscape:connector-curvature="0"
   style="clip-rule:evenodd;fill-opacity:0.16000001;fill-rule:evenodd" />
					</g>
					<g
   transform="translate(0,8)"
   id="g131">
						<path
   id="Squint"
   class="st24"
   d="M 16.2,22.4 C 18,18.6 22.2,16 27,16 c 4.8,0 9,2.6 10.8,6.4 0.6,1.1 -0.2,2 -1,1.4 -2.5,-2.1 -5.9,-3.4 -9.8,-3.4 -3.7,0 -7.1,1.2 -9.6,3.2 -0.9,0.7 -1.8,0 -1.2,-1.2 z"
   inkscape:connector-curvature="0"
   style="clip-rule:evenodd;fill-opacity:0.6;fill-rule:evenodd" />
						<path
   class="st24"
   d="M 74.2,22.4 C 76,18.6 80.2,16 85,16 c 4.8,0 9,2.6 10.8,6.4 0.6,1.1 -0.2,2 -1,1.4 -2.5,-2.1 -5.9,-3.4 -9.8,-3.4 -3.7,0 -7.1,1.2 -9.6,3.2 -0.9,0.7 -1.8,0 -1.2,-1.2 z"
   id="path129"
   inkscape:connector-curvature="0"
   style="clip-rule:evenodd;fill-opacity:0.6;fill-rule:evenodd" />
					</g>
					<g
   id="g136">
						<path
   id="Eyebrow"
   class="st24"
   d="m 26.5,6.1 c -5.8,0.3 -15.2,4.5 -15,10.3 0,0.2 0.3,0.3 0.4,0.1 2.8,-3 22.3,-5.9 29.2,-4.4 0.6,0.1 1.1,-0.5 0.7,-0.9 C 38.5,7.5 31.7,5.9 26.5,6.1"
   inkscape:connector-curvature="0"
   style="clip-rule:evenodd;fill-opacity:0.6;fill-rule:evenodd" />
						<path
   class="st24"
   d="m 86.5,6.1 c 5.8,0.3 15.2,4.5 15,10.3 0,0.2 -0.3,0.3 -0.4,0.1 -2.8,-3 -22.3,-5.9 -29.2,-4.4 -0.6,0.1 -1.1,-0.5 -0.7,-0.9 3.3,-3.7 10.1,-5.3 15.3,-5.1"
   id="path134"
   inkscape:connector-curvature="0"
   style="clip-rule:evenodd;fill-opacity:0.6;fill-rule:evenodd" />
					</g>
				</g>
				<g
   id="Top">
					<defs
   id="defs142">
						<filter
   id="Adobe_OpacityMaskFilter_8_"
   filterUnits="userSpaceOnUse"
   x="-1"
   y="0"
   width="264"
   height="280">
							<feColorMatrix
   type="matrix"
   values="1 0 0 0 0  0 1 0 0 0  0 0 1 0 0  0 0 0 1 0"
   id="feColorMatrix139" />
						</filter>
					</defs>
					<mask
   maskUnits="userSpaceOnUse"
   x="-1"
   y="0"
   width="264"
   height="280"
   id="react-mask-925_1_">
						<g
   class="st25"
   id="g145"
   style="filter:url(#Adobe_OpacityMaskFilter_8_)">
							<rect
   id="react-path-927_1_"
   class="st2"
   width="264"
   height="280"
   x="0"
   y="0"
   style="clip-rule:evenodd;fill:#ffffff;fill-rule:evenodd" />
						</g>
					</mask>
					<g
   class="st26"
   mask="url(#react-mask-925_1_)"
   id="g168">
						<g
   transform="translate(-1)"
   id="g166">
							<g
   id="Short-Hair">
								<path
   class="st27"
   d="m 183.7,38.9 c 5.4,-5 6.7,-15 3.6,-21.5 -3.8,-8 -11.4,-9 -18.7,-5.5 -6.9,3.3 -13.1,4.4 -20.6,2.8 C 140.7,13.2 133.9,10.4 126.4,10 114,9.3 102,13.9 93.6,23.1 c -1.6,1.8 -2.9,3.8 -4.1,5.8 -1,1.6 -2.1,3.4 -2.5,5.3 -0.2,0.9 0.2,3.1 -0.3,3.8 -0.5,0.8 -2.3,1.5 -3.1,2.1 -1.6,1.2 -2.9,2.5 -4.2,4 -2.7,3.2 -4.1,6.6 -5.4,10.6 -4.1,13.2 -4.5,29 0.9,42 0.7,1.7 2.9,5.4 4.2,1.6 0.3,-0.7 -0.3,-3.2 -0.3,-3.9 0,-2.7 1.5,-20.7 8,-30.8 2.1,-3.3 12,-15.6 14,-15.7 1.1,1.7 11.9,12.5 39.9,11.2 12.7,-0.6 22.4,-6.3 24.7,-8.7 1,5.5 13,13.8 14.8,17.2 5.3,9.8 6.4,30.3 8.4,30.3 2,0 3.5,-5.2 3.9,-6.2 3.1,-7.4 3.6,-16.6 3.3,-24.6 C 195.5,57 191.3,45.9 183.7,38.9 Z"
   id="path148"
   inkscape:connector-curvature="0"
   style="clip-rule:evenodd;fill:#28354b;fill-rule:evenodd" />
							</g>
							<defs
   id="defs154">
								<filter
   id="Adobe_OpacityMaskFilter_9_"
   filterUnits="userSpaceOnUse"
   x="0"
   y="0"
   width="264"
   height="280">
									<feColorMatrix
   type="matrix"
   values="1 0 0 0 0  0 1 0 0 0  0 0 1 0 0  0 0 0 1 0"
   id="feColorMatrix151" />
								</filter>
							</defs>
							<mask
   maskUnits="userSpaceOnUse"
   x="0"
   y="0"
   width="264"
   height="280"
   id="react-mask-924_1_">
								<g
   class="st28"
   id="g157"
   style="filter:url(#Adobe_OpacityMaskFilter_9_)">
									<path
   id="react-path-926_1_"
   class="st2"
   d="m 183.7,38.9 c 5.4,-5 6.7,-15 3.6,-21.5 -3.8,-8 -11.4,-9 -18.7,-5.5 -6.9,3.3 -13.1,4.4 -20.6,2.8 C 140.7,13.2 133.9,10.4 126.4,10 114,9.3 102,13.9 93.6,23.1 c -1.6,1.8 -2.9,3.8 -4.1,5.8 -1,1.6 -2.1,3.4 -2.5,5.3 -0.2,0.9 0.2,3.1 -0.3,3.8 -0.5,0.8 -2.3,1.5 -3.1,2.1 -1.6,1.2 -2.9,2.5 -4.2,4 -2.7,3.2 -4.1,6.6 -5.4,10.6 -4.1,13.2 -4.5,29 0.9,42 0.7,1.7 2.9,5.4 4.2,1.6 0.3,-0.7 -0.3,-3.2 -0.3,-3.9 0,-2.7 1.5,-20.7 8,-30.8 2.1,-3.3 12,-15.6 14,-15.7 1.1,1.7 11.9,12.5 39.9,11.2 12.7,-0.6 22.4,-6.3 24.7,-8.7 1,5.5 13,13.8 14.8,17.2 5.3,9.8 6.4,30.3 8.4,30.3 2,0 3.5,-5.2 3.9,-6.2 3.1,-7.4 3.6,-16.6 3.3,-24.6 C 195.5,57 191.3,45.9 183.7,38.9 Z"
   inkscape:connector-curvature="0"
   style="clip-rule:evenodd;fill:#ffffff;fill-rule:evenodd" />
								</g>
							</mask>
							<g
   class="st29"
   mask="url(#react-mask-924_1_)"
   id="g164">
								<g
   id="g162">
									<rect
   class="st30"
   width="264"
   height="280"
   id="rect160"
   x="0"
   y="0"
   style="clip-rule:evenodd;fill:#4a312c;fill-rule:evenodd" />
								</g>
							</g>
						</g>
					</g>
				</g>
			</g>
		</g>
	</g>
</g>
<g
   inkscape:groupmode="layer"
   id="layer1"
   inkscape:label="Layer 1"
   style="display:inline"><circle
     style="fill:#2d3f51;fill-opacity:1;stroke:none;stroke-width:1.04587889"
     id="path4694"
     cx="132.8783"
     cy="151.72581"
     r="127.18951" /><path
     style="fill:#000000;fill-opacity:1;stroke:none;stroke-width:1.04587889"
     d="m 62.873505,193.89735 c -12.550897,1.09165 -32.905745,16.23641 -35.427872,27.83546 -0.377798,1.73746 3.236267,5.89099 4.456993,7.33013 l 4.823906,5.68701 c 24.115179,27.98749 59.207703,44.10679 96.151418,44.16592 36.84806,-0.0304 72.05731,-16.03962 96.19174,-43.88401 l 6.22881,-7.90263 -2.49682,-7.7799 c -1.46117,-4.55288 -15.50029,-21.82965 -29.85461,-23.7741 l -25.58566,-3.46586 -86.273146,-0.66609 z"
     id="rect4698"
     inkscape:connector-curvature="0"
     sodipodi:nodetypes="sssccccssccs" /><path
     style="fill:#1a1a1a;stroke:none;stroke-width:1.35358906px;stroke-linecap:butt;stroke-linejoin:miter;stroke-opacity:1"
     d="m 91.088264,191.44328 c 0,0 -1.612359,23.86882 27.824976,32.3741 0,0 24.0359,6.41476 42.5355,-4.62717 18.4996,-11.04195 15.91267,-27.08084 15.91267,-27.08084 l -8.07728,-0.80412 -70.178747,-0.52405 z"
     id="path4702"
     inkscape:connector-curvature="0"
     sodipodi:nodetypes="ccscccc" /><path
     style="fill:#ecb889;fill-opacity:1;stroke:none;stroke-width:1.04587889px;stroke-linecap:butt;stroke-linejoin:miter;stroke-opacity:1"
     d="m 109.25237,174.89335 -4.40444,13.16185 -5.742547,2.726 c 0,0 -0.916397,19.41363 22.993577,25.66531 0,0 19.52281,4.71619 34.5488,-3.40004 15.02598,-8.11623 12.63637,-21.74122 12.63637,-21.74122 l -5.42514,-3.04031 -4.40444,-13.37159 c 0,0 -14.76177,5.90757 -24.85223,5.57853 0,0 -11.98333,1.12696 -25.34995,-5.57853 z"
     id="path4700"
     inkscape:connector-curvature="0"
     sodipodi:nodetypes="ccccsccccc" /><path
     style="fill:#d5a67c;fill-opacity:1;stroke:none;stroke-width:1.04587889px;stroke-linecap:butt;stroke-linejoin:miter;stroke-opacity:1"
     d="m 107.62165,180.21146 -2.77372,7.84374 c 0,0 38.93986,13.2615 59.01106,0.20974 l -3.70702,-11.27265 -51.72987,-1.12949 z"
     id="path4769"
     inkscape:connector-curvature="0"
     sodipodi:nodetypes="cccccc" /><path
     style="fill:#ecb889;fill-opacity:1;stroke:none;stroke-width:1.04587889px;stroke-linecap:butt;stroke-linejoin:miter;stroke-opacity:1"
     d="m 99.27189,37.638144 c 0,0 -15.346057,12.566501 -18.448238,24.665016 0,0 -5.392478,18.247927 -4.247334,28.047281 0,0 -0.948823,3.750093 -3.430568,0.105026 0,0 -8.220785,2.171528 -9.151439,10.702533 v 17.83756 c 0,0 1.002004,8.87357 10.699424,10.67993 0,0 6.434509,13.18857 15.818239,26.74964 5.013766,7.24573 9.539536,15.04112 17.336116,20.00115 0,0 28.28361,12.36394 53.61321,0 0,0 9.54876,-7.60999 18.87835,-22.10104 8.42661,-13.08851 10.18572,-16.55792 10.865,-24.64975 0,0 9.05305,-1.14072 10.60414,-10.44726 v -18.6131 c 0,0 -1.03701,-8.795135 -10.29038,-10.369277 0,0 -1.3428,0.287178 -2.42857,-6.847848 0,0 -3.4124,-18.45799 -6.8248,-25.437902 0,0 -16.12337,-13.544131 -15.42937,-17.707262 0,0 -11.55963,9.021149 -27.07054,9.331368 0,0 -25.6125,2.166211 -40.49324,-11.946065 z"
     id="path4710"
     inkscape:connector-curvature="0"
     sodipodi:nodetypes="cccccccsccsccccccccc" /><path
     style="fill:#151515;fill-opacity:1;stroke:none;stroke-width:1.04587889px;stroke-linecap:butt;stroke-linejoin:miter;stroke-opacity:1"
     d="m 88.687239,92.651374 6.561562,-9.178031 c 0,0 20.164189,-3.722619 24.662359,4.653276 0,0 -19.01726,-6.771622 -31.223921,4.524755 z"
     id="path4716"
     inkscape:connector-curvature="0" /><path
     style="fill:#171717;fill-opacity:0.79797977;stroke:none;stroke-width:1.04587889px;stroke-linecap:butt;stroke-linejoin:miter;stroke-opacity:1"
     d="m 91.310827,105.97238 c 0,0 1.938861,-5.73903 9.384103,-7.367671 0,0 10.08209,-1.395993 13.6496,7.367671 0,0 0,2.17152 -2.24908,-0.0776 0,0 -7.17379,-5.8553 -17.915108,-0.42648 0,0 -2.249079,2.5205 -2.869515,0.50409 z"
     id="path4763"
     inkscape:connector-curvature="0"
     sodipodi:nodetypes="cccccc" /><path
     sodipodi:nodetypes="cccccc"
     inkscape:connector-curvature="0"
     id="path4765"
     d="m 152.07285,105.97238 c 0,0 1.93885,-5.73903 9.38409,-7.367671 0,0 10.0821,-1.395993 13.64961,7.367671 0,0 0,2.17152 -2.24907,-0.0776 0,0 -7.17381,-5.8553 -17.91511,-0.42648 0,0 -2.24908,2.5205 -2.86952,0.50409 z"
     style="fill:#171717;fill-opacity:0.79797977;stroke:none;stroke-width:1.04587889px;stroke-linecap:butt;stroke-linejoin:miter;stroke-opacity:1" /><path
     inkscape:connector-curvature="0"
     id="path4771"
     d="m 178.18508,92.651374 -6.069,-9.178031 c 0,0 -18.65051,-3.722619 -22.81101,4.653276 0,0 17.58968,-6.771622 28.88001,4.524755 z"
     style="fill:#151515;fill-opacity:1;stroke:none;stroke-width:1.00585771px;stroke-linecap:butt;stroke-linejoin:miter;stroke-opacity:1" /><path
     style="fill:#473729;fill-opacity:1;stroke:none;stroke-width:0.26994321px;stroke-linecap:butt;stroke-linejoin:miter;stroke-opacity:1"
     d="m 114.14885,140.64132 c 0,0 20.54309,7.12001 40.73725,-0.33906 0,0 1.5434,0.83658 0.51482,4.04236 0,0 -2.99961,5.7513 -11.44998,7.53773 -1.39327,0.29455 -5.79456,0.99944 -7.48327,1.27503 0,0 -15.50554,1.19294 -22.64333,-7.64593 -0.0148,-0.10808 -0.0287,-0.21379 -0.0416,-0.3172 -0.50612,-4.0378 0.36614,-4.55293 0.36614,-4.55293 z"
     id="path955"
     inkscape:connector-curvature="0"
     sodipodi:nodetypes="cccsccscc" /><path
     style="fill:#b3b3b3;stroke:none;stroke-width:0.30466834px;stroke-linecap:butt;stroke-linejoin:miter;stroke-opacity:1"
     d="m 154.70008,144.32284 c -18.22169,4.89351 -40.14321,1.16239 -40.14321,1.16239 0,0 3.23735,6.24226 17.69254,7.52579 0,0 19.19315,0.0559 22.45067,-8.68819 z"
     id="path959"
     inkscape:connector-curvature="0"
     sodipodi:nodetypes="ccccc" /><path
     style="fill:#f2f2f2;stroke:none;stroke-width:0.27771324px;stroke-linecap:butt;stroke-linejoin:miter;stroke-opacity:1"
     d="m 114.14885,140.64132 c 0,0 12.96824,4.2436 34.32852,1.43505 0.58553,-0.077 2.27684,-0.47997 2.59514,-0.57332 0.81447,-0.23887 1.11951,-0.358 3.76116,-1.22701 0,0 1.53561,2.83722 -0.97632,5.56003 0,0 -17.65,5.43513 -39.30048,-0.35084 0,0 -0.40802,-0.87315 -0.40802,-4.84391 z"
     id="path957"
     inkscape:connector-curvature="0"
     sodipodi:nodetypes="csscccc" /><path
     style="fill:#ecb889;fill-opacity:1;stroke:none;stroke-width:1.02643454px;stroke-linecap:butt;stroke-linejoin:miter;stroke-opacity:1"
     d="m 111.67156,145.53077 c 0,0 0.18725,-0.38615 1.0291,1.25336 1.35533,2.63957 22.59818,15.55631 48.77975,-0.42638 l -1.39598,15.68651 -43.89589,0.89639 z"
     id="path961"
     inkscape:connector-curvature="0"
     sodipodi:nodetypes="cscccc" /></g><g
   inkscape:groupmode="layer"
   id="layer2"
   inkscape:label="Layer 2"
   style="display:inline" /><path
   style="fill:#000000;stroke:#000000;stroke-width:1.04587889px;stroke-linecap:butt;stroke-linejoin:miter;stroke-opacity:1"
   d="m 73.340786,94.024677 c 0,0 2.303057,3.693508 3.482202,-0.127462 0,0 0.246879,-1.846761 -0.24667,-3.546774 0,0 1.391823,-17.830811 3.873568,-22.639194 0,0 7.425741,-18.928635 19.068674,-26.526326 0,0 6.52434,10.239864 33.04801,11.635845 26.52365,1.395983 34.51577,-9.021147 34.51577,-9.021147 0,0 1.53008,2.817475 10.83664,11.03826 0,0 3.98659,6.520696 6.29894,11.632494 0,0 3.25729,8.996332 6.20436,26.213445 0,0 1.24087,2.171526 3.41239,-1.551091 0,0 8.06569,-13.649603 3.41241,-40.483488 0,0 -4.52298,-14.332971 -11.02515,-18.877227 0,0 8.5434,-7.956658 4.35546,-20.830718 -4.18795,-12.8740597 -16.90691,-8.6861117 -16.90691,-8.6861117 0,0 -14.58026,6.9799112 -20.16419,4.8083835 0,0 -29.00541,-7.91056698 -37.07107,-4.9634926 0,0 -21.715288,2.171528 -31.64228,24.8174638 0,0 0.465333,3.72262 -3.489951,6.281921 0,0 -10.48481,5.053583 -12.897747,32.25391 0,0 -1.316144,15.245343 4.935544,28.571309 z"
   id="path4712"
   inkscape:connector-curvature="0"
   sodipodi:nodetypes="cccccscccccccsccccccc" /><path
   style="fill:#c79b74;fill-opacity:1;stroke:none;stroke-width:1.04587889px;stroke-linecap:butt;stroke-linejoin:miter;stroke-opacity:1"
   d="m 123.81012,121.41305 h 25.10109 c 0,0 -0.29605,7.69916 -12.55055,8.36702 -12.2545,0.66788 -12.55054,-8.36702 -12.55054,-8.36702 z"
   id="path4714"
   inkscape:connector-curvature="0" /></svg>